<svg id="visual" viewBox="0 0 1920 500" width="1920" height="500" xmlns="http://www.w3.org/2000/svg" xmlns:xlink="http://www.w3.org/1999/xlink" version="1.1"><path d="M0 351L45.7 346C91.3 341 182.7 331 274.2 323C365.7 315 457.3 309 548.8 312.5C640.3 316 731.7 329 823 328.2C914.3 327.3 1005.7 312.7 1097 316.3C1188.3 320 1279.7 342 1371.2 341.3C1462.7 340.7 1554.3 317.3 1645.8 307C1737.3 296.7 1828.7 299.3 1874.3 300.7L1920 302L1920 501L1874.3 501C1828.7 501 1737.3 501 1645.8 501C1554.3 501 1462.7 501 1371.2 501C1279.7 501 1188.3 501 1097 501C1005.7 501 914.3 501 823 501C731.7 501 640.3 501 548.8 501C457.3 501 365.7 501 274.2 501C182.7 501 91.3 501 45.7 501L0 501Z" fill="#fa7268"></path><path d="M0 348L45.7 350.8C91.3 353.7 182.7 359.3 274.2 365.2C365.7 371 457.3 377 548.8 375.2C640.3 373.3 731.7 363.7 823 355C914.3 346.3 1005.7 338.7 1097 339.2C1188.3 339.7 1279.7 348.3 1371.2 351.5C1462.7 354.7 1554.3 352.3 1645.8 353C1737.3 353.7 1828.7 357.3 1874.3 359.2L1920 361L1920 501L1874.3 501C1828.7 501 1737.3 501 1645.8 501C1554.3 501 1462.7 501 1371.2 501C1279.7 501 1188.3 501 1097 501C1005.7 501 914.3 501 823 501C731.7 501 640.3 501 548.8 501C457.3 501 365.7 501 274.2 501C182.7 501 91.3 501 45.7 501L0 501Z" fill="#ef5f67"></path><path d="M0 403L45.7 397.5C91.3 392 182.7 381 274.2 376.3C365.7 371.7 457.3 373.3 548.8 374C640.3 374.7 731.7 374.3 823 375.8C914.3 377.3 1005.7 380.7 1097 383.2C1188.3 385.7 1279.7 387.3 1371.2 392.2C1462.7 397 1554.3 405 1645.8 402C1737.3 399 1828.7 385 1874.3 378L1920 371L1920 501L1874.3 501C1828.7 501 1737.3 501 1645.8 501C1554.3 501 1462.7 501 1371.2 501C1279.7 501 1188.3 501 1097 501C1005.7 501 914.3 501 823 501C731.7 501 640.3 501 548.8 501C457.3 501 365.7 501 274.2 501C182.7 501 91.3 501 45.7 501L0 501Z" fill="#e34c67"></path><path d="M0 442L45.7 439.5C91.3 437 182.7 432 274.2 427.2C365.7 422.3 457.3 417.7 548.8 419.5C640.3 421.3 731.7 429.7 823 428.8C914.3 428 1005.7 418 1097 416.8C1188.3 415.7 1279.7 423.3 1371.2 423C1462.7 422.7 1554.3 414.3 1645.8 417.3C1737.3 420.3 1828.7 434.7 1874.3 441.8L1920 449L1920 501L1874.3 501C1828.7 501 1737.3 501 1645.8 501C1554.3 501 1462.7 501 1371.2 501C1279.7 501 1188.3 501 1097 501C1005.7 501 914.3 501 823 501C731.7 501 640.3 501 548.8 501C457.3 501 365.7 501 274.2 501C182.7 501 91.3 501 45.7 501L0 501Z" fill="#d53867"></path><path d="M0 463L45.7 460.3C91.3 457.7 182.7 452.3 274.2 448C365.7 443.7 457.3 440.3 548.8 440.5C640.3 440.7 731.7 444.3 823 448.3C914.3 452.3 1005.7 456.7 1097 459.7C1188.3 462.7 1279.7 464.3 1371.2 464.7C1462.7 465 1554.3 464 1645.8 465.8C1737.3 467.7 1828.7 472.3 1874.3 474.7L1920 477L1920 501L1874.3 501C1828.7 501 1737.3 501 1645.8 501C1554.3 501 1462.7 501 1371.2 501C1279.7 501 1188.3 501 1097 501C1005.7 501 914.3 501 823 501C731.7 501 640.3 501 548.8 501C457.3 501 365.7 501 274.2 501C182.7 501 91.3 501 45.7 501L0 501Z" fill="#c62368"></path></svg>